<svg width="150" height="150" viewBox="0 0 150 150" fill="none" xmlns="http://www.w3.org/2000/svg">
<g filter="url(#filter0_b_74_1416)">
<path d="M26.7857 55.6071L37.9286 55.7143L37.5 57.5357L36.1072 64.1786L35.3572 67.9286L34.7143 71.0357L33.6429 76.1786L33.4286 77.1429L33.9643 76.6071L34.2857 76.5L34.5 76.0714L35.5715 75.1071L36.9643 74.1429L38.6786 73.1786L40.9286 72.3214L42.5357 72L43.6072 71.8929H46.5L48.2143 72.1071L49.9286 72.75L51.4286 73.6071L52.6072 74.5714L53.4643 75.4286L54.4286 76.8214L55.3929 78.6429L55.9286 80.3571L56.3572 82.1786L56.5715 84.1071V86.3571L56.3572 88.5L55.8215 91.5L55.2858 93.5357L54.4286 96L53.4643 98.1429L52.3929 100.071L51.2143 101.786L50.25 102.964L49.2857 104.036L47.7857 105.536L46.6072 106.5L45.2143 107.464L43.6072 108.429L41.3572 109.5L38.4643 110.464L36.2143 110.893L33.5357 111.214H29.6786L27.1072 110.893L25.1786 110.464L22.9286 109.5L21.6429 108.643L20.5715 107.679L19.7143 106.607L18.8572 104.893L18.3215 103.179L18.1072 101.679V99.4286L18.4286 96.75L19.2857 92.0357L20.0357 88.3929L20.8929 84.2143L21.5357 80.8929L25.0715 63.2143L26.1429 57.9643L26.4643 56.0357L26.5715 55.7143L26.7857 55.6071ZM39 80.8929L37.6072 81.3214L36.3215 81.9643L34.9286 83.0357L34.6072 83.3571V83.5714H34.3929L33.3215 84.9643L32.4643 86.4643L31.7143 87.9643L30.8572 90.6429L29.8929 95.0357L29.5715 97.6071V98.5714L29.8929 100.286L30.4286 101.357L30.8572 101.893L31.7143 102.429L32.6786 102.75L33.3215 102.857H34.6072L36.3215 102.429L37.8215 101.679L39 100.821L40.0715 99.8571L41.1429 98.5714L42.2143 96.9643L43.0715 95.3571L44.0357 92.7857L44.6786 90L44.8929 88.2857V86.25L44.5715 84.6429L44.0357 83.1429L43.1786 82.0714L42.3215 81.4286L41.3572 81L40.8215 80.8929H39Z" fill="white"/>
<path d="M51.1072 23.8929L51.5358 24L52.2858 24.8571L56.5715 29.1429L56.7858 29.25V29.4643H57L57.4286 29.8929V30.1071L57.8572 30.3214V30.5357H58.0715V30.75H58.2858V30.9643L58.7143 31.1786L74.0358 46.5L74.3572 46.6071L74.7858 46.0714L75.3215 45.5357H75.5358L75.75 45.1071L80.4643 40.3929L81.3215 39.6429L83.5715 37.3929H83.7858L83.8929 37.0714L84.75 36.3214L87 34.0714L87.5358 33.6429L87.9643 33.1071L88.5 32.8929L90 34.5L91.6072 36.1071L92.3572 36.9643L93.8572 38.4643L94.6072 39.3214L99.2143 43.9286L100.393 44.8929L101.679 46.0714L103.179 47.25L104.571 48.4286L105.536 49.1786L107.25 50.5714L109.071 51.9643L110.786 53.3571L111.964 54.2143L115.179 56.6786L117.107 58.0714L119.143 59.5714L121.286 61.0714L123.107 62.3571L125.679 64.0714L128.464 65.8929L130.5 67.1786L133.393 68.8929L135.107 69.8571L137.036 70.9286L140.143 72.5357L143.464 74.0357L145.929 75L148.071 75.75L148.393 76.0714L146.571 76.3929H142.607L140.786 76.0714L138.964 75.6429L136.393 74.8929L133.714 73.9286L130.714 72.6429L128.036 71.3571L126 70.2857L123.107 68.6786L120.75 67.2857L119.357 66.4286L117 64.9286L114.107 63L112.393 61.8214L110.25 60.3214L108.321 58.9286L104.036 55.7143L102.107 54.2143L100.393 52.8214L99.3215 51.9643L97.6072 50.5714L96.2143 49.3929L95.0358 48.4286L94.5 48.1071L92.8929 48.4286L91.3929 48.5357H86.5715L84.4286 48.3214L82.2858 47.7857L80.1429 47.1429L79.6072 47.25L78 48.9643V49.2857L80.1429 51.2143L82.7143 53.5714L83.5715 54.3214L84.6429 55.2857L86.0358 56.5714L87.2143 57.6429L87.4286 57.75V57.9643L87.8572 58.1786L89.5715 59.7857L90.8572 60.9643L91.9286 61.9286L92.7858 62.6786L93.8572 63.6429L94.2858 63.9643V64.1786L94.7143 64.3929L95.4643 65.1429L96.3215 65.8929L97.3929 66.8571L98.25 67.6071L99.6429 68.8929L100.821 69.9643L101.679 70.7143L102.321 71.1429L102.429 71.5714L102.107 71.6786H93.9643L93.3215 71.25L92.5715 70.5L91.7143 69.75L90.4286 68.5714L89.3572 67.6071L88.0715 66.4286L84.8572 63.5357L83.5715 62.3571L82.7143 61.6071L81.2143 60.2143L80.3572 59.4643L78.8572 58.0714L78 57.3214L76.6072 56.0357L75.75 55.2857L71.8929 51.75L71.0358 51L69.6429 49.7143L68.3572 48.5357L67.2858 47.5714L66 46.3929L63.8572 44.4643L62.5715 43.2857L60.4286 41.3571L59.0358 40.0714L57.9643 39.1071L56.6786 37.9286L55.8215 37.1786L54.3215 35.7857L53.4643 35.0357L52.0715 33.75L51.3215 33.1071L51.2143 32.8929L50.6786 33L49.3929 33.9643L47.6786 35.3571L45.8572 36.75L44.6786 37.7143L41.7858 39.9643L40.0715 41.3571L38.25 42.75L37.0715 43.7143L35.6786 44.7857L33 46.9286L31.0715 48.4286L29.5715 49.6071L27.9643 50.8929L21.9643 55.6071L20.8929 56.4643L16.3929 60L15.3215 60.8571L13.9286 61.9286L12.2143 63.3214L10.8215 64.3929L9.32146 65.5714L7.71432 66.8571L6.21432 68.0357L5.14289 68.8929L3.21432 70.3929L2.03575 71.25L0.964321 71.4643H0.107178L0.321463 71.0357L1.50003 69.9643L2.35718 69.2143L3.32146 68.25L4.17861 67.5L5.03575 66.6429L5.89289 65.8929L7.39289 64.5L8.25004 63.75L11.7857 60.4286L14.3572 58.0714L15.9643 56.5714L17.7857 54.8571L19.9286 52.9286L23.4643 49.6071L26.0357 47.25L27.6429 45.75L29.4643 44.0357L30.75 42.8571L31.6072 42.1071L32.3572 41.3571L33.2143 40.6071L33.8572 39.9643H34.0715V39.75L34.9286 39L36.5358 37.5L37.3929 36.75L38.0358 36.1071H38.25L38.3572 35.7857L39.2143 35.0357L41.0358 33.3214L42.5358 31.9286L43.3929 31.1786L45.2143 29.4643L46.9286 27.8571L48.3215 26.5714L49.6072 25.3929L51 24.1071L51.1072 23.8929Z" fill="white"/>
<path d="M63.2143 56.0357H74.3571L74.4643 56.3571L74.0357 57.9643L73.5 61.0714L72.8571 64.0714L72.3214 67.0714L71.5714 70.9286L70.2857 77.3571L70.0714 77.8929L70.6071 77.5714L71.1428 76.9286H71.3571V76.7143L72.2143 75.9643L73.2857 75.1071L74.7857 74.1429L76.3928 73.2857L78.3214 72.6429L79.7143 72.3214L81.5357 72.1071H82.9286L85.0714 72.4286L86.8928 73.0714L88.3928 74.0357L89.25 74.7857L90.1071 75.8571L90.9643 77.5714L91.5 79.0714L91.7143 80.7857V84L91.5 87.1071L90.3214 93.6429L89.5714 97.3929L88.8214 101.357L88.0714 105.536L87.1071 110.571L86.8928 110.786H75.8571L75.9643 109.821L76.7143 106.071L77.4643 102.214L78.4286 97.0714L78.9643 94.1786L79.9286 89.25L80.1428 87.1071V84.4286L79.8214 83.0357L79.1786 82.1786L78.6428 81.75L77.8928 81.4286L77.3571 81.3214H75.6428L74.0357 81.8571L72.8571 82.6071L71.6786 83.6786L70.6071 85.0714L69.6428 86.6786L68.6786 88.7143L67.7143 91.7143L66.75 96.6429L65.8928 101.25L65.1428 105.107L64.2857 109.393L64.0714 110.679L61.6071 110.786H53.1428L52.8214 110.679L53.0357 109.5L53.6786 106.286L54.4286 102.321L55.1786 98.25L56.1428 93.2143L56.8928 89.3571L57.3214 87L57.9643 83.5714L58.8214 79.2857L59.3571 76.2857L60 72.9643L60.6428 69.5357L61.2857 66L62.0357 62.1429L63 57.3214L63.2143 56.0357Z" fill="white"/>
<path d="M113.679 71.8929H117.75L120 72.1071L121.929 72.5357L123.429 73.0714L123.536 73.5L121.393 80.0357L120.964 81.5357L120.536 81.6429L118.929 81.1071L116.679 80.7857H114.857L113.25 81L111.107 81.6429L109.393 82.5L108 83.4643L106.821 84.5357L105.643 86.0357L104.679 87.6429L103.821 89.6786L103.286 91.5L103.071 93.75V95.3571L103.286 97.0714L103.821 98.4643L104.357 99.4286L105.321 100.5L106.286 101.25L107.893 102L109.071 102.214H112.286L114.321 101.893L116.464 101.25L117.429 100.929H117.857V109.286L116.893 109.714L114.536 110.464L112.286 110.893L109.286 111.214H105.536L103.179 110.893L101.25 110.464L98.7858 109.393L97.1786 108.429L96.0001 107.464L94.6072 106.071L93.6429 104.679L92.6786 102.964L91.9286 100.929L91.6072 99.6429L91.3929 97.9286L91.2858 96.1071V94.6071L91.6072 91.2857L92.1429 89.0357L93.0001 86.4643L94.0715 84.2143L94.9286 82.7143L96.3215 80.7857L97.6072 79.3929L98.3572 78.5357L99.2143 77.7857L100.607 76.6071L102.536 75.3214L104.464 74.25L107.143 73.1786L109.714 72.4286L111.321 72.1071L113.679 71.8929Z" fill="white"/>
<path d="M78.75 81.6429H91.7143V84L91.5 87.1071L90.3215 93.6429L89.5715 97.3929L88.8215 101.357L88.0715 105.536L87.1072 110.571L86.8929 110.786H75.8572L75.9643 109.821L76.7143 106.071L77.4643 102.214L78.4286 97.0714L78.9643 94.1786L79.9286 89.25L80.1429 87.1071V84.4286L79.8215 83.0357L79.1786 82.1786L78.75 81.6429Z" fill="white"/>
<path d="M4.28577 112.393H130.179L130.286 112.5V114.643L130.071 114.857H4.39291L4.28577 114.75V112.393Z" fill="white"/>
<path d="M100.607 45.2143L101.25 45.6429L102.214 46.5L103.286 47.3571L104.464 48.3214L105.536 49.1786L107.25 50.5714L109.071 51.9643L110.786 53.3571L111.964 54.2143L115.179 56.6786L117.107 58.0714L119.143 59.5714L121.286 61.0714L123.107 62.3571L125.679 64.0714L128.464 65.8929L130.5 67.1786L133.393 68.8929L135.107 69.8571L137.036 70.9286L140.143 72.5357L143.464 74.0357L145.929 75L148.071 75.75L148.393 76.0714L146.571 76.3929H142.607L140.786 76.0714L138.964 75.6429L136.393 74.8929L133.714 73.9286L130.714 72.6429L128.036 71.3571L126 70.2857L123.107 68.6786L120.75 67.2857L119.357 66.4286L117 64.9286L114.107 63L112.393 61.8214L110.25 60.3214L108.321 58.9286L104.036 55.7143L102.107 54.2143L100.393 52.8214L99.3214 51.9643L97.6071 50.5714L96.2142 49.3929L95.0357 48.4286L94.7142 48.1071L97.6071 47.0357L99.6428 45.9643L100.607 45.2143Z" fill="white"/>
<path d="M91.3928 97.3929L91.5 97.6071L93.8571 97.5H103.393L104.25 99.3214L105.429 100.607L106.5 101.357L107.893 102L109.071 102.214H112.286L114.321 101.893L116.464 101.25L117.429 100.929H117.857V109.286L116.893 109.714L114.536 110.464L112.286 110.893L109.286 111.214H105.536L103.179 110.893L101.25 110.464L98.7857 109.393L97.1785 108.429L96 107.464L94.6071 106.071L93.6428 104.679L92.6785 102.964L91.9285 100.929L91.6071 99.6429L91.3928 97.9286V97.3929Z" fill="white"/>
<path d="M88.2858 32.8929L88.7143 33.1071L89.8929 34.3929L91.6072 36.1071L92.3572 36.9643L93.8572 38.4643L94.6072 39.3214L99.2143 43.9286L100.393 44.8929L100.607 45.3214L99.4286 46.1786L97.3929 47.25L94.9286 48.1071H94.2858L93.6429 48.3214L91.3929 48.5357H86.5715L84.4286 48.3214L82.2858 47.7857L79.9286 47.0357L78.2143 46.1786L76.7143 45.1071L76.2858 44.7857L76.5001 44.3571L80.4643 40.3929L81.3215 39.6429L83.5715 37.3929H83.7858L83.8929 37.0714L84.7501 36.3214L87.0001 34.0714L87.5358 33.6429L87.9643 33.1071L88.2858 32.8929Z" fill="white"/>
<path d="M19.6072 90.6429H19.7143V97.5H29.5715L29.6786 97.1786V98.5714L30 100.5L29.8929 105.857L47.1429 105.964L46.6072 106.5L45.2143 107.464L43.6072 108.429L41.3572 109.5L38.4643 110.464L36.2143 110.893L33.5357 111.214H29.6786L27.1072 110.893L25.1786 110.464L22.9286 109.5L21.6429 108.643L20.5715 107.679L19.7143 106.607L18.8572 104.893L18.3215 103.179L18.1072 101.679V99.4286L18.4286 96.75L19.2857 92.0357L19.6072 90.6429Z" fill="white"/>
<path d="M26.7857 55.6071L37.9286 55.7143L37.5 57.5357L36.1071 64.1786L35.3571 67.9286L34.7143 71.0357L34.3929 72.6429L34.2857 72.75H24.6429L23.25 72.6429L23.3571 71.6786L24.1071 68.0357L25.1786 62.7857L25.8214 59.4643L26.25 57.4286L26.5714 55.7143L26.7857 55.6071Z" fill="white"/>
<path d="M113.679 71.8929H117.75L120 72.1071L121.929 72.5357L123.429 73.0714L123.536 73.5L121.393 80.0357L120.964 81.5357L120.536 81.6429L118.929 81.1071L116.679 80.7857H114.857L113.25 81L111.857 81.3214L96.1072 81.2143L96.4286 80.6786L97.6072 79.3929L98.3572 78.5357L99.2143 77.7857L100.607 76.6071L102.536 75.3214L104.464 74.25L107.143 73.1786L109.714 72.4286L111.321 72.1071L113.679 71.8929Z" fill="white"/>
<path d="M63.2142 56.0357H74.3571L74.4642 56.3571L74.0357 57.9643L73.4999 61.0714L72.8571 64.0714L72.3214 67.0714L71.5714 70.9286L71.2499 72.4286L71.1428 72.5357H60.2142V71.6786L60.9642 67.8214L61.6071 64.5L62.5714 59.3571L62.9999 57.3214L63.2142 56.0357Z" fill="white"/>
<path d="M64.1785 73.0714H71.0357L70.9285 74.1429L70.2857 77.3571L70.0714 77.8929L70.6071 77.5714L71.1428 76.9286H71.3571V76.7143L72.2142 75.9643L73.2857 75.1071L74.7857 74.1429L76.3928 73.2857L77.0357 73.0714L86.0357 73.1786L86.1428 73.2857V80.8929L86.0357 81H64.6071L63.9642 80.8929V73.1786L64.1785 73.0714Z" fill="white"/>
<path d="M23.25 72.6429L34.2857 72.75L34.0714 74.1429L33.5357 76.6071L33.4285 77.1429L33.9643 76.6071L34.2857 76.5L34.5 76.0714L35.5714 75.1071L36.9643 74.1429L38.6785 73.1786L39.75 72.75H41.8928V80.5714L39.1071 80.6786H21.6428L21.8571 79.3929L22.6071 75.5357L23.1428 72.75L23.25 72.6429Z" fill="white"/>
<path d="M55.2857 98.3571H57.9643L66.3214 98.4643L66.2143 99.6429L65.4643 103.393L64.6071 107.786L64.0714 110.679L61.6071 110.786H53.1428L52.8214 110.679L53.0357 109.5L53.6786 106.286L54.4286 102.321L55.0714 98.7857L55.2857 98.3571Z" fill="white"/>
<path d="M88.5 98.3571H89.3572L89.1429 99.75L88.2857 104.357L87.1072 110.571L86.8929 110.786H75.8572L75.9643 109.821L76.7143 106.071L77.4643 102.214L78.1072 98.6786L78.2143 98.4643L88.5 98.3571Z" fill="white"/>
<path d="M101.036 98.0357H103.5L104.036 98.8928L104.679 99.8571L105.643 100.821L107.143 101.679L107.893 102L109.071 102.214H112.286L114.321 101.893L116.464 101.25L117.429 100.929H117.857V105.964H95.6786L95.5714 105.857V98.25L95.6786 98.1428L101.036 98.0357Z" fill="white"/>
<path d="M41.4643 98.0357L52.1786 98.1428L52.0715 98.7857L52.1786 100.393L51.1072 101.893L50.2501 102.964L49.2858 104.036L47.7858 105.536L47.2501 105.964H29.8929L29.7858 105.857L29.8929 100.5L30.2143 100.821L30.8572 101.786L31.7143 102.321L32.6786 102.643L33.3215 102.75H34.6072L36.3215 102.321L37.8215 101.571L39.0001 100.714L40.0715 99.75L41.0358 98.5714L41.4643 98.0357Z" fill="white"/>
<path d="M81.5357 72.1071H82.9286L85.0714 72.4286L86.8929 73.0714L88.3929 74.0357L89.25 74.7857L90.1071 75.8571L90.9643 77.5714L91.5 79.0714L91.7143 80.7857V81.6429L78.6429 81.75L77.8929 81.4286L77.3571 81.3214H75.6429L74.25 81.75L61.0714 81.6429L58.6071 81.5357L58.5 81.4286L58.6071 80.3571L59.4643 75.75L60 72.9643L60.1071 72.2143L60.2143 72.5357L71.25 72.4286L71.1429 73.1786H63.9643V80.8929H86.0357V73.2857L77.4643 73.1786L77.25 72.9643L79.7143 72.3214L81.5357 72.1071Z" fill="white"/>
<path d="M44.6785 89.6786H56.0357V90.4286L55.3928 93.2143L54.4285 96L53.4642 98.1429L52.3928 100.071L52.0714 100.179L51.9642 98.6786L52.0714 98.25L42.6428 98.1429L41.4642 98.0357L42.3214 96.5357L43.1785 94.8214L44.0357 92.4643L44.6785 89.6786Z" fill="white"/>
<path d="M93.8572 89.6786H103.714L103.5 90.6429L103.179 92.25L103.071 93.75V95.3571L103.286 97.0714V97.6071H91.5001L91.3929 97.3929L91.2858 96.1071V94.6071L91.6072 91.2857L91.9286 89.7857L93.8572 89.6786Z" fill="white"/>
<path d="M49.5 72.75L50.1428 72.8571L51.4286 73.6071L52.6071 74.5714L53.4643 75.4286L54.4286 76.8214L55.3928 78.6429L55.9286 80.3571V80.6786H42.4286L42.3214 80.5714V76.6071L42.4286 72.8571L49.5 72.75Z" fill="white"/>
<path d="M61.6071 64.6071H72.6428V65.4643L71.2499 72.4286L71.1428 72.5357H60.2142V71.6786L60.9642 67.8214L61.4999 65.0357L61.6071 64.6071Z" fill="white"/>
<path d="M18.3215 98.1429H29.4643L29.3572 105.857L29.25 105.964L19.3929 106.071L18.75 104.679L18.3215 103.179L18.1072 101.679V99.4286L18.2143 98.25L18.3215 98.1429Z" fill="white"/>
<path d="M19.9285 89.6786H31.1785L30.7499 91.5L30.1071 94.6071L29.6785 97.1786L29.5714 97.5H19.7142V90L19.9285 89.6786Z" fill="white"/>
<path d="M21.5358 81.2143H29.3572V89.0357L26.7858 89.1429H20.0358L20.1429 87.75L20.8929 84.2143L21.4286 81.4286L21.5358 81.2143Z" fill="white"/>
<path d="M42 81.2143H51.9643L52.0714 81.3214V89.0357L48.1071 89.1429H44.7857V86.25L44.4643 84.6429L43.9286 83.1429L43.0714 82.0714L42 81.3214V81.2143Z" fill="white"/>
<path d="M56.7857 90H61.9285L63.4285 90.1071V97.9286H58.6071L55.3928 97.8214L55.5 96.6429L56.1428 93.2143L56.7857 90Z" fill="white"/>
<path d="M79.9286 90H86.0357L86.1429 90.1071V97.8214L84.3214 97.9286H78.4286V97.0714L78.9643 94.1786L79.7143 90.4286L79.9286 90Z" fill="white"/>
<path d="M107.143 73.1786H107.571L107.679 73.8214L107.571 80.5714L107.464 80.6786H96.6428L96.8571 80.1429L97.7143 79.2857L98.3571 78.5357L99.2143 77.7857L100.607 76.6071L102.536 75.3214L104.464 74.25L107.143 73.1786Z" fill="white"/>
<path d="M76.7143 106.071L76.8215 106.393L87.8572 106.286L87.3215 109.5L87.1072 110.571L86.8929 110.786H75.8572L75.9643 109.821L76.7143 106.071Z" fill="white"/>
<path d="M53.6786 106.286L64.8214 106.393L64.7143 107.25L64.2857 109.393L64.0714 110.679L61.6071 110.786H53.1428L52.8214 110.679L53.0357 109.5L53.6786 106.286Z" fill="white"/>
<path d="M79.9286 89.25H91.0715L90.8572 90.6429L90.0001 95.25L89.5715 97.3929L89.3572 98.3571L88.5001 98.4643H78.2144L78.3215 97.6071L78.4286 97.9286L84.3215 97.8214H86.1429L86.0358 90.1071H79.8215L79.9286 89.25Z" fill="white"/>
<path d="M57 89.25L68.3572 89.3571L68.1429 90.3214L67.6072 92.25L66.75 96.6429L66.4286 98.3571L66.3214 98.4643H55.1786L55.2857 97.7143L63.4286 97.9286V90.1071L56.8929 90V89.3571L57 89.25Z" fill="white"/>
<path d="M95.1428 106.5H107.464L107.571 106.607V111.214H105.536L103.179 110.893L101.25 110.464L98.7857 109.393L97.1785 108.429L96 107.464L95.1428 106.607V106.5Z" fill="white"/>
<path d="M34.5001 64.2857H36.0001L35.7858 65.8928L34.9286 69.8571L34.5001 72.1071L34.3929 72.2143H32.5715L29.8929 72.1071L29.7858 72L29.8929 64.3928L34.5001 64.2857Z" fill="white"/>
<path d="M24.8572 64.2857H29.25L29.3572 64.3928V72.1071L25.6072 72.2143H23.3572L23.4643 71.1428L24.1072 68.0357L24.8572 64.2857Z" fill="white"/>
<path d="M108.214 106.5H117.857V109.286L116.893 109.714L114.536 110.464L112.286 110.893L109.286 111.214H108.107V106.607L108.214 106.5Z" fill="white"/>
<path d="M19.6071 90.6429H19.7143V97.5H29.5714L29.6786 97.1786V98.5714L30 100.5L29.8928 105.857L47.1428 105.964L46.6071 106.5L45.2143 107.464L43.6071 108.429L42.1071 109.179L41.8928 109.071V106.607H19.7143L19.5 106.071L20.0357 105.964L29.25 105.857L29.3571 99.3214L29.4643 98.1429H18.3214L18.4286 96.75L19.2857 92.0357L19.6071 90.6429Z" fill="white"/>
<path d="M60.1072 73.0714H63.3215L63.4286 73.1786V81H58.8215L58.6072 80.8929L58.7143 79.8214L59.4643 75.75L60 73.1786L60.1072 73.0714Z" fill="white"/>
<path d="M52.7143 81.2143H54.75L56.0357 81.3214L56.25 81.6429L56.4643 82.9286L56.5715 84.1071V86.3571L56.3572 88.5L56.25 89.1429H53.8929L52.6072 89.0357V81.3214L52.7143 81.2143Z" fill="white"/>
<path d="M29.8929 81.2143H37.7143L37.3929 81.5357L36.3215 82.0714L34.9286 83.1429L34.6072 83.5714H34.3929L34.1786 84L33.0001 85.6071L32.1429 87.2143L31.3929 89.1429L29.7858 89.0357L29.8929 81.2143Z" fill="white"/>
<path d="M86.6786 73.0714L87.3214 73.2857L88.8214 74.3571L89.8928 75.5357L90.75 77.0357L91.3928 78.75L91.6071 79.6071V81H87.4286L86.5714 80.8929V73.9286L86.6786 73.0714Z" fill="white"/>
<path d="M95.4642 81.9643H95.5714L95.6785 83.25V88.9286L97.2856 89.0357L103.929 89.1429L103.821 89.6786L92.0356 89.7857L92.1428 89.0357L92.9999 86.4643L94.0714 84.2143L94.9285 82.7143L95.4642 81.9643Z" fill="white"/>
<path d="M91.6071 98.1429H95.1429V103.5L95.0357 105.964L94.6071 106.071L93.6429 104.679L92.6786 102.964L91.9286 100.929L91.6071 99.6429L91.5 98.25L91.6071 98.1429Z" fill="white"/>
<path d="M63.2143 56.0357H74.3572V56.1429L64.0715 56.25L63.9643 64.0714L64.7143 63.9643L72.75 64.0714V64.8214L72.6429 64.6071L66 64.7143L61.6072 64.6071L62.4643 59.8929L63 57.3214L63.2143 56.0357Z" fill="white"/>
<path d="M36.1071 63.5357L36.2143 63.75L36 64.2857L34.5 64.3929H29.8929V72L34.3929 72.2143L34.2857 72.75H24.6429L23.25 72.6429V72.2143L25.6071 72.1071H29.3571L29.25 64.3929L24.9643 64.2857V63.75L25.0714 63.6429L36.1071 63.5357Z" fill="white"/>
<path d="M57 89.25L68.3572 89.3571L68.25 90L66.1072 90.1071H63.9643V97.9286H66.4286L66.3214 98.4643H55.1786L55.2857 97.7143L63.4286 97.9286V90.1071L56.8929 90V89.3571L57 89.25Z" fill="white"/>
<path d="M79.9286 89.25H91.0715L90.9644 90.1071H86.5715V97.8214L89.4644 97.7143L89.3572 98.3571L88.5001 98.4643H78.2144L78.3215 97.6071L78.4286 97.9286L84.3215 97.8214H86.1429L86.0358 90.1071H79.8215L79.9286 89.25Z" fill="white"/>
<path d="M81.5357 72.1071H82.9286L85.0714 72.4286L86.5714 72.9643L86.6786 73.0714L86.5714 81.5357H79.7143L79.3929 81.3214L78.4286 81.2143L78.3214 81L86.0357 80.8929V73.2857L77.4643 73.1786L77.25 72.9643L79.7143 72.3214L81.5357 72.1071Z" fill="white"/>
<path d="M107.893 72.9643H108.107L108.214 80.4643L108.429 80.5714H114.857V80.7857L113.25 81L111.857 81.3214L96.1072 81.2143L96.4286 80.6786L96.6429 80.5714H107.464L107.571 73.5L107.464 73.0714L107.893 72.9643Z" fill="white"/>
<path d="M30.1072 106.071H47.0357L46.6072 106.5L45.2143 107.464L43.6072 108.429L42.1072 109.179L41.8929 109.071V106.607L33.2143 106.5L31.3929 106.393L30.1072 106.179V106.071Z" fill="white"/>
<path d="M60.1071 72.2143L60.2143 72.5357L71.25 72.4286L71.1429 73.1786L63.8571 73.0714V81.5357H58.6071L58.5 81.4286V80.7857L58.8214 80.8929L63.4286 81L63.3214 73.1786H60L60.1071 72.2143Z" fill="white"/>
<path d="M44.7857 118.821L45.4286 118.929L45.8572 119.357L46.3929 119.25L47.0357 118.821L47.8929 118.929L48.5357 119.679L48.6429 120.107V124.393H48.1072L48 124.286V120.536L47.7857 119.679L47.25 119.357L46.7143 119.571L46.3929 120L46.2857 124.393H45.6429L45.5357 120L45.2143 119.464L44.6786 119.357L44.1429 119.786L43.9286 120.429L43.8214 124.393H43.2857L43.1786 123.857V118.929L43.7143 119.143L44.25 119.036L44.7857 118.821Z" fill="white"/>
<path d="M37.8214 118.821H38.4643L38.8929 119.036L39.1072 119.357L39.6429 119.25L40.2857 118.821L41.0357 118.929L41.5714 119.357L41.8929 119.893V124.393H41.25L41.1429 120.107L40.8214 119.464L40.3929 119.357L39.9643 119.571L39.6429 120L39.5357 120.536L39.4286 124.393L38.8929 124.286L38.7857 119.893L38.25 119.357L37.7143 119.464L37.3929 119.571L37.1786 120.321L37.0714 124.393H36.5357L36.4286 123.643V119.25L36.6429 118.929L36.8572 119.143L37.3929 119.036L37.8214 118.821Z" fill="white"/>
<path d="M76.7143 106.071L76.8215 106.393L87.8572 106.286L87.3215 109.5L87.1072 110.571L86.8929 110.786L86.1429 110.679V106.929H76.6072L76.7143 106.071Z" fill="white"/>
<path d="M21.6428 80.6786H25.3928V80.7857L21.8571 80.8929V81.1071L29.3571 81L29.6786 81.1071L29.5714 81.5357V85.3929H29.6786L29.7857 81.2143H29.8928V88.1786L29.7857 89.0357H31.1786L31.3928 89.25L31.1786 89.6786L19.8214 89.7857L19.9286 88.9286L20.0357 89.1429L26.7857 89.0357H29.3571V81.2143H21.5357L21.6428 80.6786Z" fill="white"/>
<path d="M95.4642 81.9643H95.5714L95.6785 83.25V88.9286L97.2856 89.0357L103.929 89.1429L103.821 89.6786L92.0356 89.7857L92.1428 89.0357H95.0356V82.6072L95.4642 81.9643Z" fill="white"/>
<path d="M72.2143 118.929H73.1786L73.8214 119.036H74.25V124.393L74.0357 125.679L73.2857 126.643L72.75 126.857H72L71.3572 126.429V126.107H72.9643L73.3929 125.571L73.6072 124.929L73.7143 124.071L73.1786 124.393L72.4286 124.5L71.7857 124.179L71.3572 123.643L71.0357 122.786L70.9286 122.143V121.179L71.25 120L71.8929 119.143L72.2143 118.929ZM72.4286 119.357L71.8929 119.893L71.5714 120.857V122.571L72 123.536L72.5357 123.964L73.0714 123.857L73.6072 123.321L73.7143 122.786V120.429L73.3929 119.679L72.9643 119.357H72.4286Z" fill="white"/>
<path d="M113.679 71.8929H117.75L120 72.1071L121.929 72.5357L122.25 72.6429V72.8571H110.25L108.964 72.75L109.286 72.5357L111.321 72.1071L113.679 71.8929Z" fill="white"/>
<path d="M53.6786 106.286L64.8214 106.393L64.7143 107.25L64.2857 109.393L64.0714 110.679H63.4286L63.3214 107.036L53.6786 106.929V106.286Z" fill="white"/>
<path d="M95.7858 106.071H114.857L114.75 106.286L111.429 106.393H110.357L108.214 106.607L108.107 111.214H107.571L107.464 106.607L97.0715 106.5V106.286H96.1072L95.7858 106.071Z" fill="white"/>
<path d="M42.2142 96.75H42.3214V97.5H52.2857L53.6785 97.6071L52.8214 99.3214L52.2857 100.179H52.0714L51.9642 98.6786L52.0714 98.25L42.6428 98.1429L41.4642 98.0357L42.2142 96.75Z" fill="white"/>
<path d="M56.7857 116.464L57.1071 116.571L57.2143 124.393H56.7857L56.6785 124.179L56.1428 124.393L55.3928 124.607L54.6428 124.286L54.1071 123.429L53.8928 122.679V120.857L54.2143 119.786L54.9643 118.929H55.9285L56.4643 119.25L56.5714 116.679L56.7857 116.464ZM55.3928 119.25L54.8571 119.786L54.5357 120.857V122.679L54.8571 123.643L55.1785 123.964L55.6071 124.071L56.1428 123.75L56.5714 123V120.214L56.3571 119.786L55.6071 119.25H55.3928Z" fill="white"/>
<path d="M25.3929 80.6786H37.5L37.8215 80.8929L36.8572 81.1071L33.75 81.2143H29.7857V88.0714H29.6786L29.5715 88.6071H29.4643V81.3214L29.6786 81.1071H21.8572V80.8929L22.0715 80.7857L25.3929 80.6786Z" fill="white"/>
<path d="M43.6071 71.8929H46.5L48.2143 72.1071L49.7143 72.6429L49.5 72.8571H42.4286V76.6071H42.3214L42.2143 73.9286H42.1071L42 80.4643H41.8928V72.75H40.0714L40.2857 72.5357L41.7857 72.1071L43.6071 71.8929Z" fill="white"/>
<path d="M103.393 119.036H103.929L104.036 119.143L104.143 123.536L104.571 123.964L105.214 123.857L105.536 123.429L105.643 119.25L105.75 119.036H106.286V124.393L105.536 124.286L105.214 124.5H104.143L103.607 123.964L103.286 122.893V119.143L103.393 119.036Z" fill="white"/>
<path d="M85.3929 118.929L85.8215 119.036L85.9286 119.143V121.714L86.0358 123.429L86.2501 123.857L86.8929 123.964L87.3215 123.75L87.4286 123.536L87.5358 119.143L87.6429 119.036H88.1786L88.2858 119.143V123L88.1786 124.393L87.5358 124.286L86.6786 124.607L85.9286 124.393L85.3929 123.75L85.2858 123.429V119.036L85.3929 118.929Z" fill="white"/>
<path d="M36.1071 63.5357L36.2142 63.75L35.9999 64.2857L34.4999 64.3929L29.6785 64.5L29.0357 64.3929L24.9642 64.2857V63.75L25.0714 63.6429L36.1071 63.5357Z" fill="white"/>
<path d="M33.6429 118.821L34.2858 118.929L34.8215 119.357L35.3572 120.429L35.4643 121.179V122.25L35.1429 123.429L34.7143 124.179L33.9643 124.607L33.1072 124.5L32.4643 123.75L32.0358 122.571V120.964L32.3572 119.893L32.7858 119.25L33.2143 118.929L33.6429 118.821ZM33.6429 119.25L33.1072 119.571L32.7858 120.214L32.6786 120.857V122.679L33.0001 123.643L33.6429 124.071L34.1786 123.857L34.5001 123.536L34.7143 122.893V120.429L34.2858 119.571L33.7501 119.25H33.6429Z" fill="white"/>
<path d="M51.2142 118.821L51.9642 118.929L52.6071 119.464L53.0357 120.429L53.1428 121.179V122.25L52.9285 123.214L52.3928 124.071L51.7499 124.607H50.9999L50.2499 123.964L49.8214 123L49.7142 122.571V120.75L50.0357 119.786L50.6785 119.036L51.2142 118.821ZM51.2142 119.25L50.6785 119.679L50.4642 120.214L50.3571 121.179V122.357L50.5714 123.321L50.9999 123.964L51.6428 124.071L52.1785 123.536L52.4999 122.571V120.857L52.1785 119.893L51.7499 119.357L51.2142 119.25Z" fill="white"/>
<path d="M19.6071 90.6429H19.7143V97.5H19.9286V97.7143H20.25V97.9286H29.4643V98.1429H18.3214L18.4286 96.75L19.2857 92.0357L19.6071 90.6429Z" fill="white"/>
<path d="M82.5 118.821L83.25 119.036L83.8928 119.786L84.2143 120.643V122.679L83.7857 123.75L83.25 124.393L82.8214 124.607L81.9643 124.5L81.4285 124.071L81 123.214L80.8928 122.786V120.536L81.4285 119.464L82.0714 118.929L82.5 118.821ZM82.1785 119.357L81.6428 120.107L81.4285 120.857V122.571L81.8571 123.643L82.3928 124.071L82.9285 123.964L83.3571 123.321L83.5714 122.571V120.75L83.25 119.893L82.8214 119.357H82.1785Z" fill="white"/>
<path d="M80.0356 118.821H80.2499L80.1428 120.214L79.3928 122.893L78.8571 124.821L77.8928 126.429L77.4642 126.857H77.0356L77.1428 126.321L77.8928 125.357L78.3214 124.179L77.8928 122.464L77.1428 119.571L77.0356 119.036L77.4642 118.929L77.7856 119.25L78.4285 121.821L78.6428 123L78.8571 123.107L78.9642 121.929L79.7142 119.25L80.0356 118.821Z" fill="white"/>
<path d="M52.5 83.5714H52.6072V89.0357H53.8929L56.1429 89.1429V89.7857L44.6786 89.6786L44.7857 89.1429L48.1072 89.0357H52.0714H52.3929L52.5 83.5714Z" fill="white"/>
<path d="M68.3572 118.821L69.1072 118.929L69.6429 119.357L69.8572 119.786V124.393L69.3215 124.286L69.2143 120.107L68.8929 119.571L68.6786 119.357L68.1429 119.464L67.7143 119.893L67.6072 120.214L67.5 124.393H66.9643L66.8572 124.286V119.036L67.0715 118.929L67.6072 119.143L68.3572 118.821Z" fill="white"/>
<path d="M81.5357 72.1071H82.9286L85.0714 72.4286L86.5714 72.9643L86.6786 73.0714V73.9286L86.3571 73.5L86.0357 73.2857L77.4643 73.1786L77.25 72.9643L79.7143 72.3214L81.5357 72.1071Z" fill="white"/>
<path d="M22.2857 118.929H23.4643L24.1072 119.464L24.3214 119.893V124.393L23.5714 124.286L23.0357 124.607L22.1786 124.5L21.6429 123.857L21.4286 123.321V122.571L21.8572 121.714L22.7143 121.179L23.6786 121.071L23.4643 119.679L23.25 119.464H21.8572L22.0714 119.036L22.2857 118.929ZM23.25 121.5L22.5 121.821L22.1786 122.25L22.0714 123.214L22.3929 123.964L22.9286 124.071L23.4643 123.75L23.6786 123.321V121.5H23.25Z" fill="white"/>
<path d="M59.1429 118.821H59.8929L60.6429 119.25L60.9643 119.786L61.0714 121.5V124.393H60.5357H60.1072L59.6786 124.607L58.9286 124.5L58.2857 123.75L58.1786 123.429V122.464L58.5 121.929L59.0357 121.393L59.8929 121.071L60.3214 120.964V120.107L60 119.571L59.6786 119.357L59.0357 119.464L58.6072 119.571L58.7143 119.143L59.1429 118.821ZM59.7857 121.5L59.1429 121.929L58.7143 122.679L58.8214 123.536L59.3572 124.071L59.8929 123.964L60.3214 123.429L60.4286 123.214V121.607L60.3214 121.5H59.7857Z" fill="white"/>
<path d="M110.893 118.929H111.857L112.5 119.357L112.821 120.107V121.393L112.607 121.5H110.464L110.571 122.893L110.893 123.536V123.75L111.857 123.964L112.607 123.75L112.714 124.179L112.393 124.5H111L110.357 123.964L109.929 123.107L109.714 122.25V120.964L110.036 119.893L110.571 119.143L110.893 118.929ZM111.107 119.357L110.571 119.893L110.464 120.214V120.964L110.571 121.071L111.643 121.179L112.286 120.964L112.179 120L111.643 119.357H111.107Z" fill="white"/>
<path d="M96.5357 119.036L97.0714 119.143V122.25L97.1786 123.536L97.6072 123.964L98.25 123.857L98.5714 123.536L98.6786 123.107L98.7857 119.143L99.3214 119.036L99.4286 119.464L99.3214 124.393L98.6786 124.286L98.25 124.5H97.1786L96.75 124.071L96.5357 123.643L96.4286 122.893V119.143L96.5357 119.036Z" fill="white"/>
<path d="M63.2143 56.1429H63.3214L63.4286 64.0714H61.8214L61.9286 62.7857L62.7857 58.2857L63 57.3214L63.1071 56.3571L63.2143 56.1429Z" fill="white"/>
<path d="M42.4286 106.5H46.3928L45.8571 107.036L43.8214 108.321L42.5357 108.964H42.3214V106.821L42.4286 106.5Z" fill="white"/>
<path d="M95.25 116.464H96.1071L96.3214 116.893L95.3571 117.107L94.9285 117.643L94.8214 118.929L95.7857 119.036V119.357L95.6785 119.464H94.9285L94.8214 124.286L94.2857 124.393V119.464L93.6428 119.357V119.036L94.2857 118.929V117.857L94.5 117.214L95.0357 116.571L95.25 116.464Z" fill="white"/>
<path d="M42 73.5H42.3214L42.4286 80.5714L42.9643 80.7857V81H43.6071L43.8214 81.2143L41.8929 81.3214L40.8214 81H39L37.7143 81.3214L33.75 81.2143V81.1071L37.0714 81L37.5 80.7857V80.6786L41.8929 80.4643L42 73.5Z" fill="white"/>
<path d="M64.0714 81H73.8214V81.2143H73.5V81.5357H64.0714V81Z" fill="white"/>
<path d="M95.4643 105.857L117.857 105.964V106.5H109.5V106.393L110.464 106.286H112.179L114.75 106.179H96.1072L97.0715 106.286V106.5H95.3572L95.4643 105.857Z" fill="white"/>
<path d="M29.5714 97.1786L29.6786 97.6071V98.8928H29.4643L29.3572 98.0357H21.4286L20.25 97.9286V97.7143H19.9286V97.5H29.5714V97.1786Z" fill="white"/>
<path d="M96.5357 80.5714L106.179 80.6786L106.607 80.8929H105.107V81.1071L103.929 81.2143H96.1072L96.4286 80.6786L96.5357 80.5714Z" fill="white"/>
<path d="M30.5357 118.821L31.2857 118.929L31.4999 119.143L31.3928 119.571L31.0714 119.464H30.3214L29.7857 119.893L29.5714 120.429V123L29.8928 123.643L30.5357 123.964L31.6071 123.857L31.4999 124.286L31.1785 124.5H29.9999L29.2499 123.857L28.7142 122.571V120.857L29.1428 119.786L29.8928 119.036L30.5357 118.821Z" fill="white"/>
<path d="M21.6429 80.6786H25.3929V80.7857L21.8572 80.8929V81.1071L29.3572 81L29.6786 81.1071L29.5715 81.5357V85.3929H29.6786L29.7858 81.2143H29.8929V88.1786L29.7858 89.1429L29.0358 89.3571H23.8929V89.25L26.7858 89.0357H29.3572V81.2143H21.5358L21.6429 80.6786Z" fill="white"/>
<path d="M27.3214 118.821L28.0714 118.929L28.1785 119.464L27.3214 119.357L26.6785 119.679L26.25 120.536L26.1428 120.964V122.571L26.4643 123.429L26.5714 123.75L27.2143 123.964L27.8571 123.857L28.1785 123.75V124.286L27.8571 124.5H26.6785L25.9285 123.857L25.5 123L25.3928 122.571V120.857L25.8214 119.893L26.25 119.25L26.7857 118.929L27.3214 118.821Z" fill="white"/>
<path d="M101.143 117.857L101.464 117.964L101.571 118.929L102.429 119.036L102.536 119.357L102.321 119.464H101.464L101.571 123.536L101.679 123.857L102.429 124.179L102.321 124.5H101.464L101.036 124.071L100.929 123.75L100.821 119.571L100.286 119.357V119.036L100.821 118.821L100.929 118.071L101.143 117.857Z" fill="white"/>
<path d="M62.6786 117.857H63L63.1071 118.929L64.0714 119.036L63.9643 119.464H63L63.1071 123.429L63.2143 123.857L63.9643 124.179L63.8571 124.5H63L62.5714 124.071L62.4643 123.75V119.464L61.8214 119.357V119.036L62.3571 118.821L62.4643 118.071L62.6786 117.857Z" fill="white"/>
<path d="M108.964 118.929H109.5L109.286 119.357L108.536 119.893L108.429 120.214L108.321 124.286L108.214 124.393H107.679L107.571 124.286V119.25L107.679 119.036L108.643 119.143L108.964 118.929Z" fill="white"/>
<path d="M95.4642 81.9643H95.5714L95.6785 83.25V88.9286L95.4642 89.25L94.4999 89.4643L92.0356 89.6786L92.1428 89.0357H95.0356V82.6072L95.4642 81.9643Z" fill="white"/>
<path d="M113.679 71.8929H117.75L119.893 72.1071V72.2143L112.607 72.3214L113.25 72.6429L117.214 72.75V72.8571H110.25L108.964 72.75L109.286 72.5357L111.321 72.1071L113.679 71.8929Z" fill="white"/>
<path d="M107.893 72.9643H108.107V78.75L108 80.5714L107.893 80.8929H107.036L106.929 80.6786L107.464 80.5714L107.571 73.5L107.464 73.0714L107.893 72.9643Z" fill="white"/>
<path d="M20.0357 105.964H29.4643V106.179L29.25 106.286L27.9643 106.393H19.6071L19.5 106.071L20.0357 105.964Z" fill="white"/>
<path d="M55.2857 97.7143L63.2143 97.9286L63.3214 98.1429L63 98.3571L57.75 98.4643H55.1786L55.2857 97.7143Z" fill="white"/>
<path d="M90.8571 118.929H91.4999L91.2857 119.357L90.5357 119.786L90.2142 120.75L90.1071 124.393H89.5714L89.4642 119.036L89.9999 119.143L90.4285 119.25H90.6428V119.036L90.8571 118.929Z" fill="white"/>
<path d="M64.1786 63.9643H66.2143L72.75 64.0714V64.8214L72.6428 64.5H65.3571L64.2857 64.2857H64.0714L64.1786 63.9643Z" fill="white"/>
<path d="M76.7143 106.071L76.8215 106.393H84.8572L85.6072 106.5L85.5 106.821H77.7857L76.6072 106.929L76.7143 106.071Z" fill="white"/>
<path d="M81.5357 72.1071H82.9286L84.5357 72.3214L84.75 72.5357H80.25V72.75L80.7857 72.8571L81 73.1786H77.4643L77.25 72.9643L79.7143 72.3214L81.5357 72.1071Z" fill="white"/>
<path d="M29.4643 98.8929H29.6786L30 100.5L29.8929 104.786L29.6786 105.857H29.4643L29.3572 105.429V99.3214L29.4643 98.8929Z" fill="white"/>
<path d="M91.6072 80.7857H91.7143V81.6428H87L86.6786 81H91.6072V80.7857Z" fill="white"/>
<path d="M86.5714 106.929H87.6428V107.679L87.1071 110.571L86.8928 110.786H86.5714V106.929Z" fill="white"/>
<path d="M63.8572 58.8214H63.9643L64.0715 64.0714L64.2857 64.1786L65.3572 64.3929L72.6429 64.5V64.6071L66 64.7143L61.6072 64.6071L61.7143 63.9643L63.4286 64.0714V64.2857H63.8572V58.8214Z" fill="white"/>
<path d="M64.9286 119.036H65.4643V124.393L64.9286 124.286V119.036Z" fill="white"/>
<path d="M42.4286 72.2143H47.7857V72.5357L47.5714 72.75H43.1786L42.3214 72.4286L42.4286 72.2143Z" fill="white"/>
<path d="M29.25 64.2857L29.8929 64.5V71.4643H29.7857L29.6786 70.1786H29.5714L29.4643 70.9286H29.3571L29.25 64.2857Z" fill="white"/>
<path d="M26.7857 55.6071L37.9286 55.7143V55.9286H26.5714V55.7143L26.7857 55.6071Z" fill="white"/>
<path d="M63.8571 73.0714L64.1786 73.1786H63.9643V80.8929H64.6071V81H64.0714L64.1786 81.4286L73.3928 81.5357V81.6429H61.0714V81.5357H63.8571V81.2143L63.6428 81.1071H63.8571V73.0714Z" fill="white"/>
<path d="M21.6429 80.6786H25.3929V80.7857L21.8572 80.8929V81.1071L29.3572 81L29.6786 81.1071L29.5715 81.5357L29.4643 89.0357H29.3572V81.2143H21.5358L21.6429 80.6786Z" fill="white"/>
<path d="M95.6786 89.1429H103.929V89.3571L102.964 89.4643H97.8214L96.1072 89.3571L95.6786 89.1429Z" fill="white"/>
<path d="M63.8571 97.0714H63.9642V97.9286H66.4285L66.3214 98.4643H57.9642V98.3571L62.9999 98.25L63.1071 98.1429H63.8571V97.0714Z" fill="white"/>
<path d="M42 73.5H42.3214V80.1429L42.2143 80.6786H42V73.5Z" fill="white"/>
<path d="M19.1786 92.8929H19.2857L19.1786 97.5L18.4286 97.6071V96.75L19.0714 93.1071L19.1786 92.8929Z" fill="white"/>
<path d="M19.6071 96.8571H19.7143V97.5H19.9286V97.7143H20.25V97.9286H29.4643V98.1429H18.3214V97.9286L19.2857 97.7143H19.6071V96.8571Z" fill="white"/>
<path d="M116.893 80.5714L121.179 80.6786L120.857 81.6429L120.321 81.5357L118.929 81.1071L116.679 80.7857L116.893 80.5714Z" fill="white"/>
<path d="M120 72.2143L121.071 72.3214L122.25 72.6429V72.8571H118.179L117.75 72.6429L120 72.2143Z" fill="white"/>
<path d="M52.9286 89.1429H56.1429V89.7857H54.4286L53.0357 89.6786L53.25 89.4643L52.9286 89.1429Z" fill="white"/>
<path d="M84.75 72.4286L85.8214 72.6429L86.6786 73.0714V73.9286L86.3571 73.5L86.0357 73.2857L81 73.1786V73.0714L84.1071 72.9643V72.8571H84.8571V72.6429H83.3571V72.5357L84.75 72.4286Z" fill="white"/>
<path d="M63.9643 106.929H64.7143L64.5 108.321L64.0715 110.571H63.8572V107.25L63.9643 106.929Z" fill="white"/>
<path d="M52.1785 98.1429H53.3571L53.1428 98.6786L52.2857 100.179H52.0714L51.9642 98.6786L52.1785 98.1429Z" fill="white"/>
<path d="M81.5357 72.1071H82.9286L84.5357 72.3214L84.75 72.5357H79.6072L79.7143 72.3214L81.5357 72.1071Z" fill="white"/>
<path d="M42.5357 97.8214L43.4999 97.9286H49.8214L51.3214 97.8214L52.1785 98.0357V98.1429H42.6428L41.4642 98.0357V97.9286L42.5357 97.8214Z" fill="white"/>
<path d="M39.1071 80.5714L40.3929 80.7857V80.8929L39 81L37.7143 81.3214L33.75 81.2143V81.1071L37.0714 81L37.5 80.7857V80.6786L39.1071 80.5714Z" fill="white"/>
<path d="M92.1428 89.0357L95.0356 89.1428L94.9285 89.3571L94.4999 89.4643L92.0356 89.6786L92.1428 89.0357Z" fill="white"/>
<path d="M86.5714 80.8929H87.4286V81L86.7857 81.1071V81.3214L87 81.4286V81.6429H79.8214V81.5357L86.4643 81.4286L86.3571 81.1071H86.5714V80.8929Z" fill="white"/>
<path d="M47.7857 72.1071L48.5357 72.2143L49.7142 72.6429L49.4999 72.8571H47.4642V72.5357L47.7857 72.3214V72.1071Z" fill="white"/>
<path d="M109.286 80.6786H111.964V80.8929L111.429 81H109.5L109.179 80.7857L109.286 80.6786Z" fill="white"/>
<path d="M42.1071 106.607L42.3214 106.714V109.071L41.8928 109.179L42 107.25L42.1071 106.607Z" fill="white"/>
<path d="M64.0714 97.9286H66.4286L66.3214 98.3571V98.1428L65.8928 98.3571H65.3571L64.8214 98.25L64.0714 98.1428V97.9286Z" fill="white"/>
<path d="M29.3571 72.4286L29.7857 72.5357L30.2143 72.75H24.6428V72.6429L29.25 72.5357L29.3571 72.4286Z" fill="white"/>
<path d="M42.2143 96.75H42.3214V97.5L42.75 97.6071L42.8571 97.9286H41.5714L42.2143 96.75Z" fill="white"/>
<path d="M19.6072 90.6429H19.7143V92.5714L19.3929 92.6786L19.1786 92.8929L19.3929 91.6071L19.6072 90.6429Z" fill="white"/>
<path d="M52.7143 98.1429H53.3572L53.1429 98.6786L52.8215 99.3214H52.6072V98.25L52.7143 98.1429Z" fill="white"/>
<path d="M64.9286 117.214H65.4643L65.5714 117.321V117.964H64.9286L64.8214 117.857V117.321L64.9286 117.214Z" fill="white"/>
<path d="M29.6785 70.0714H29.7857V71.4643L29.5714 71.6786L29.4642 70.1786L29.6785 70.0714Z" fill="white"/>
<path d="M119.786 81.2143H120.964L120.857 81.6429L120.321 81.5357L119.786 81.3214V81.2143Z" fill="white"/>
<path d="M100.607 45.2143L100.714 45.4286L100.179 45.9643L99.6428 46.2857L99.75 45.8571L100.607 45.2143Z" fill="white"/>
<path d="M65.25 98.0357H66.4286L66.3214 98.3571V98.1428L65.8929 98.3571H65.3571L65.25 98.0357Z" fill="white"/>
</g>
<defs>
<filter id="filter0_b_74_1416" x="-20" y="-20" width="190" height="190" filterUnits="userSpaceOnUse" color-interpolation-filters="sRGB">
<feFlood flood-opacity="0" result="BackgroundImageFix"/>
<feGaussianBlur in="BackgroundImageFix" stdDeviation="10"/>
<feComposite in2="SourceAlpha" operator="in" result="effect1_backgroundBlur_74_1416"/>
<feBlend mode="normal" in="SourceGraphic" in2="effect1_backgroundBlur_74_1416" result="shape"/>
</filter>
</defs>
</svg>
